<?xml version="1.0" encoding="UTF-8"?>
<svg width="21px" height="21px" viewBox="0 0 21 21" version="1.1" xmlns="http://www.w3.org/2000/svg" xmlns:xlink="http://www.w3.org/1999/xlink">
    <title>Mask</title>
    <g id="Desktop" stroke="none" stroke-width="1" fill="none" fill-rule="evenodd">
        <g id="Channels-Copy" transform="translate(-1210.000000, -378.000000)" fill="#FFFFFF">
            <path d="M1225,391.2 L1224.052,391.2 L1223.716,390.876 C1224.892,389.508 1225.6,387.732 1225.6,385.8 C1225.6,381.492 1222.108,378 1217.8,378 C1213.492,378 1210,381.492 1210,385.8 C1210,390.108 1213.492,393.6 1217.8,393.6 C1219.732,393.6 1221.508,392.892 1222.876,391.716 L1223.2,392.052 L1223.2,393 L1229.2,398.988 L1230.988,397.2 L1225,391.2 L1225,391.2 Z M1217.8,391.2 C1214.812,391.2 1212.4,388.788 1212.4,385.8 C1212.4,382.812 1214.812,380.4 1217.8,380.4 C1220.788,380.4 1223.2,382.812 1223.2,385.8 C1223.2,388.788 1220.788,391.2 1217.8,391.2 L1217.8,391.2 Z" id="Mask"></path>
        </g>
    </g>
</svg>